<svg width="24" height="24" viewBox="0 0 24 24" fill="none" xmlns="http://www.w3.org/2000/svg">
<path fill-rule="evenodd" clip-rule="evenodd" d="M3.63 7.02258L9.02 2.82258C10.37 1.77258 12.62 1.72258 14.02 2.70258L20.2 7.03258C21.19 7.72258 22 9.27258 22 10.4826V17.7626C22 20.0726 20.11 21.9726 17.79 21.9726H6.21C3.89 21.9726 2 20.0726 2 17.7526V10.3426C2 9.21258 2.73 7.72258 3.63 7.02258ZM12.75 14.9727C12.75 14.5584 12.4142 14.2227 12 14.2227C11.5858 14.2227 11.25 14.5584 11.25 14.9727V17.9727C11.25 18.3869 11.5858 18.7227 12 18.7227C12.4142 18.7227 12.75 18.3869 12.75 17.9727V14.9727Z" fill="#101010"/>
</svg>
